<?xml version="1.0" encoding="UTF-8"?>
<svg id="_图层_1" data-name="图层 1" xmlns="http://www.w3.org/2000/svg" xmlns:xlink="http://www.w3.org/1999/xlink" version="1.1" viewBox="0 0 266.3 165.2">
  <defs>
    <style>
      .cls-1 {
        fill: #4295f6;
      }

      .cls-1, .cls-2, .cls-3, .cls-4, .cls-5, .cls-6, .cls-7, .cls-8, .cls-9 {
        stroke-width: 0px;
      }

      .cls-2 {
        fill: #7d53fb;
      }

      .cls-10 {
        clip-path: url(#clippath);
      }

      .cls-3 {
        fill: none;
      }

      .cls-4 {
        fill: #4f8ef7;
      }

      .cls-5 {
        fill: #6a45f0;
      }

      .cls-6 {
        fill: #3b8bee;
      }

      .cls-11 {
        clip-path: url(#clippath-1);
      }

      .cls-12 {
        clip-path: url(#clippath-4);
      }

      .cls-13 {
        clip-path: url(#clippath-3);
      }

      .cls-14 {
        clip-path: url(#clippath-2);
      }

      .cls-15 {
        clip-path: url(#clippath-7);
      }

      .cls-16 {
        clip-path: url(#clippath-8);
      }

      .cls-17 {
        clip-path: url(#clippath-6);
      }

      .cls-18 {
        clip-path: url(#clippath-5);
      }

      .cls-19 {
        clip-path: url(#clippath-9);
      }

      .cls-7 {
        fill: #8a55e5;
      }

      .cls-20 {
        clip-path: url(#clippath-14);
      }

      .cls-21 {
        clip-path: url(#clippath-13);
      }

      .cls-22 {
        clip-path: url(#clippath-12);
      }

      .cls-23 {
        clip-path: url(#clippath-10);
      }

      .cls-24 {
        clip-path: url(#clippath-15);
      }

      .cls-25 {
        clip-path: url(#clippath-17);
      }

      .cls-26 {
        clip-path: url(#clippath-16);
      }

      .cls-27 {
        clip-path: url(#clippath-19);
      }

      .cls-28 {
        clip-path: url(#clippath-11);
      }

      .cls-29 {
        clip-path: url(#clippath-18);
      }

      .cls-8 {
        fill: #3381e6;
      }

      .cls-9 {
        fill: #9d68fc;
      }
    </style>
    <clipPath id="clippath">
      <rect class="cls-3" x="-92.2" y="-44.9" width="446.4" height="332.6"/>
    </clipPath>
    <clipPath id="clippath-1">
      <rect class="cls-3" x="-92.2" y="-44.9" width="446.4" height="332.6"/>
    </clipPath>
    <clipPath id="clippath-2">
      <rect class="cls-3" x="-92.2" y="-44.9" width="446.4" height="332.6"/>
    </clipPath>
    <clipPath id="clippath-3">
      <rect class="cls-3" x="-92.2" y="-44.9" width="446.4" height="332.6"/>
    </clipPath>
    <clipPath id="clippath-4">
      <rect class="cls-3" x="-92.2" y="-44.9" width="446.4" height="332.6"/>
    </clipPath>
    <clipPath id="clippath-5">
      <rect class="cls-3" x="-92.2" y="-44.9" width="446.4" height="332.6"/>
    </clipPath>
    <clipPath id="clippath-6">
      <rect class="cls-3" x="-92.2" y="-44.9" width="446.4" height="332.6"/>
    </clipPath>
    <clipPath id="clippath-7">
      <rect class="cls-3" x="-92.2" y="-44.9" width="446.4" height="332.6"/>
    </clipPath>
    <clipPath id="clippath-8">
      <rect class="cls-3" x="-92.2" y="-44.9" width="446.4" height="332.6"/>
    </clipPath>
    <clipPath id="clippath-9">
      <rect class="cls-3" x="-92.2" y="-44.9" width="446.4" height="332.6"/>
    </clipPath>
    <clipPath id="clippath-10">
      <rect class="cls-3" x="-92.2" y="-44.9" width="446.4" height="332.6"/>
    </clipPath>
    <clipPath id="clippath-11">
      <rect class="cls-3" x="-92.2" y="-44.9" width="446.4" height="332.6"/>
    </clipPath>
    <clipPath id="clippath-12">
      <rect class="cls-3" x="-92.2" y="-44.9" width="446.4" height="332.6"/>
    </clipPath>
    <clipPath id="clippath-13">
      <rect class="cls-3" x="-92.2" y="-44.9" width="446.4" height="332.6"/>
    </clipPath>
    <clipPath id="clippath-14">
      <rect class="cls-3" x="-92.2" y="-44.9" width="446.4" height="332.6"/>
    </clipPath>
    <clipPath id="clippath-15">
      <rect class="cls-3" x="-92.2" y="-44.9" width="446.4" height="332.6"/>
    </clipPath>
    <clipPath id="clippath-16">
      <rect class="cls-3" x="-92.2" y="-44.9" width="446.4" height="332.6"/>
    </clipPath>
    <clipPath id="clippath-17">
      <rect class="cls-3" x="-92.2" y="-44.9" width="446.4" height="332.6"/>
    </clipPath>
    <clipPath id="clippath-18">
      <rect class="cls-3" x="-92.2" y="-44.9" width="446.4" height="332.6"/>
    </clipPath>
    <clipPath id="clippath-19">
      <rect class="cls-3" x="-92.2" y="-44.9" width="446.4" height="332.6"/>
    </clipPath>
  </defs>
  <g id="patch_2" data-name="patch 2">
    <g class="cls-10">
      <path class="cls-2" d="M51.5,50.2h8.4v-.5h-8.4v.5Z"/>
    </g>
  </g>
  <g id="patch_3" data-name="patch 3">
    <g class="cls-11">
      <path class="cls-2" d="M68.3,50.2h8.4v-8h-8.4v8Z"/>
    </g>
  </g>
  <g id="patch_4" data-name="patch 4">
    <g class="cls-14">
      <path class="cls-2" d="M85,50.2h8.4V15.1h-8.4v35.1Z"/>
    </g>
  </g>
  <g id="patch_5" data-name="patch 5">
    <g class="cls-13">
      <path class="cls-2" d="M101.7,50.2h8.4V5.2h-8.4v45Z"/>
    </g>
  </g>
  <g id="patch_6" data-name="patch 6">
    <g class="cls-12">
      <path class="cls-2" d="M118.5,50.2h8.4v-18.6h-8.4v18.6Z"/>
    </g>
  </g>
  <g id="patch_7" data-name="patch 7">
    <g class="cls-18">
      <path class="cls-2" d="M135.2,50.2h8.4v-18.6h-8.4v18.6Z"/>
    </g>
  </g>
  <g id="patch_8" data-name="patch 8">
    <g class="cls-17">
      <path class="cls-2" d="M152,50.2h8.4V5.2h-8.4v45Z"/>
    </g>
  </g>
  <g id="patch_9" data-name="patch 9">
    <g class="cls-15">
      <path class="cls-2" d="M168.7,50.2h8.4V15.1h-8.4v35.1Z"/>
    </g>
  </g>
  <g id="patch_10" data-name="patch 10">
    <g class="cls-16">
      <path class="cls-2" d="M185.4,50.2h8.4v-8h-8.4v8Z"/>
    </g>
  </g>
  <g id="patch_11" data-name="patch 11">
    <g class="cls-19">
      <path class="cls-2" d="M202.2,50.2h8.4v-.5h-8.4v.5Z"/>
    </g>
  </g>
  <g id="patch_12" data-name="patch 12">
    <g class="cls-23">
      <path class="cls-2" d="M51.5,154.7h8.4v-.3h-8.4v.3Z"/>
    </g>
  </g>
  <g id="patch_13" data-name="patch 13">
    <g class="cls-28">
      <path class="cls-2" d="M68.3,154.7h8.4v-4h-8.4v4Z"/>
    </g>
  </g>
  <g id="patch_14" data-name="patch 14">
    <g class="cls-22">
      <path class="cls-2" d="M85,154.7h8.4v-17.6h-8.4v17.6Z"/>
    </g>
  </g>
  <g id="patch_15" data-name="patch 15">
    <g class="cls-21">
      <path class="cls-2" d="M101.7,154.7h8.4v-22.5h-8.4v22.5Z"/>
    </g>
  </g>
  <g id="patch_16" data-name="patch 16">
    <g class="cls-20">
      <path class="cls-2" d="M118.5,154.7h8.4v-10.6h-8.4v10.6Z"/>
    </g>
  </g>
  <g id="patch_17" data-name="patch 17">
    <g class="cls-24">
      <path class="cls-2" d="M135.2,154.7h8.4v-21.8h-8.4v21.8Z"/>
    </g>
  </g>
  <g id="patch_18" data-name="patch 18">
    <g class="cls-26">
      <path class="cls-2" d="M152,154.7h8.4v-56.2h-8.4v56.2Z"/>
    </g>
  </g>
  <g id="patch_19" data-name="patch 19">
    <g class="cls-25">
      <path class="cls-2" d="M168.7,154.7h8.4v-43.9h-8.4v43.9Z"/>
    </g>
  </g>
  <g id="patch_20" data-name="patch 20">
    <g class="cls-29">
      <path class="cls-2" d="M185.4,154.7h8.4v-10h-8.4v10Z"/>
    </g>
  </g>
  <g id="patch_21" data-name="patch 21">
    <g class="cls-27">
      <path class="cls-2" d="M202.2,154.7h8.4v-.7h-8.4v.7Z"/>
    </g>
  </g>
  <path id="DejaVuSans-Bold-44" class="cls-9" d="M21.4,66.2v17.8h2.7c3.1,0,5.4-.8,7-2.3,1.6-1.5,2.4-3.7,2.4-6.6s-.8-5.1-2.4-6.6c-1.6-1.5-4-2.3-7.1-2.3h-2.7ZM13.8,60.6h7.9c4.4,0,7.7.3,9.9,1,2.2.6,4,1.7,5.6,3.2,1.4,1.3,2.4,2.8,3,4.6.7,1.7,1,3.7,1,5.8s-.3,4.2-1,5.9c-.7,1.7-1.7,3.2-3,4.6-1.6,1.5-3.4,2.6-5.6,3.2-2.2.6-5.5.9-9.8.9h-7.9v-29.2Z"/>
  <path id="DejaVuSans-Bold-45" class="cls-7" d="M47,60.6h20.3v5.7h-12.8v5.4h12v5.7h-12v6.7h13.2v5.7h-20.7v-29.2Z"/>
  <path id="DejaVuSans-Bold-45-2" data-name="DejaVuSans-Bold-45" class="cls-2" d="M74.4,60.6h20.3v5.7h-12.8v5.4h12v5.7h-12v6.7h13.2v5.7h-20.7v-29.2Z"/>
  <path id="DejaVuSans-Bold-50" class="cls-5" d="M101.7,60.6h12.5c3.7,0,6.6.8,8.5,2.5,2,1.6,3,4,3,7s-1,5.4-3,7.1c-2,1.6-4.8,2.5-8.5,2.5h-5v10.1h-7.5v-29.2ZM109.2,66v8.1h4.2c1.5,0,2.6-.4,3.4-1.1s1.2-1.7,1.2-3-.4-2.3-1.2-3-1.9-1.1-3.4-1.1h-4.2Z"/>
  <path id="DejaVuSans-Bold-52" class="cls-4" d="M141.7,73.5c1.6,0,2.7-.3,3.4-.9.7-.6,1-1.6,1-2.9s-.3-2.3-1-2.9c-.7-.6-1.8-.9-3.4-.9h-3.2v7.5h3.2ZM138.5,78.7v11h-7.5v-29.2h11.5c3.8,0,6.7.6,8.4,1.9,1.8,1.3,2.7,3.3,2.7,6.1s-.5,3.5-1.4,4.7c-.9,1.2-2.3,2.2-4.2,2.7,1,.2,2,.8,2.8,1.6.8.8,1.6,2.1,2.5,3.8l4.1,8.3h-8l-3.6-7.2c-.7-1.5-1.4-2.5-2.2-3-.7-.5-1.7-.8-2.9-.8h-2.1Z"/>
  <path id="DejaVuSans-Bold-55" class="cls-1" d="M161.8,60.6h7.5v17.5c0,2.4.4,4.1,1.2,5.2.8,1,2.1,1.6,3.9,1.6s3.1-.5,3.9-1.6c.8-1,1.2-2.8,1.2-5.2v-17.5h7.5v17.5c0,4.1-1,7.2-3.1,9.2-2.1,2-5.2,3-9.5,3s-7.4-1-9.5-3c-2.1-2-3.1-5.1-3.1-9.2v-17.5Z"/>
  <path id="DejaVuSans-Bold-4f" class="cls-6" d="M207.6,65.5c-2.3,0-4.1.8-5.3,2.5s-1.9,4.1-1.9,7.2.6,5.4,1.9,7.1c1.3,1.7,3,2.5,5.3,2.5s4.1-.8,5.4-2.5c1.3-1.7,1.9-4.1,1.9-7.1s-.6-5.5-1.9-7.2-3-2.5-5.4-2.5ZM207.6,60c4.7,0,8.4,1.3,11,4,2.7,2.7,4,6.4,4,11.1s-1.3,8.4-4,11.1c-2.7,2.7-6.3,4-11,4s-8.3-1.3-11-4c-2.7-2.7-4-6.4-4-11.1s1.3-8.4,4-11.1c2.7-2.7,6.3-4,11-4Z"/>
  <path id="DejaVuSans-Bold-54" class="cls-8" d="M224.8,60.6h26.9v5.7h-9.7v23.5h-7.5v-23.5h-9.7v-5.7Z"/>
</svg>